<svg version="1.1" baseProfile="full" width="6426.5" height="480.0" viewbox="0 0 6426.5 480" xmlns="http://www.w3.org/2000/svg" xmlns:xlink="http://www.w3.org/1999/xlink" xmlns:ev="http://www.w3.org/2001/xml-events">
	<desc >#uml: 
	title: Exchanges between actors
	actor System
	[172.19.0.7] -&gt; [172.19.0.2]
	[172.19.0.2] -&gt; [172.19.0.7]
	[172.19.0.7] -&gt; [172.19.0.5]
	[172.19.0.5] -&gt; [172.19.0.7]
	[172.19.0.7] -&gt; [172.19.0.3]
	[172.19.0.3] -&gt; [172.19.0.7]
	[172.19.0.7] -&gt; [172.19.0.4]
	[172.19.0.7] -&gt; [172.19.0.4]
	[172.19.0.7] -&gt; [172.19.0.3]
	[172.19.0.7] -&gt; [172.19.0.5]
	[172.19.0.7] -&gt; [172.19.0.4]
	[172.19.0.7] -&gt; [172.19.0.3]
	[172.19.0.7] -&gt; [172.19.0.5]
	[172.19.0.5] -&gt; [172.19.0.7]
	[172.19.0.5] -&gt; [172.19.0.7]
	[172.19.0.4] -&gt; [172.19.0.7]
	[172.19.0.4] -&gt; [172.19.0.7]
	[172.19.0.3] -&gt; [172.19.0.7]
	[172.19.0.3] -&gt; [172.19.0.7]
	[172.19.0.7] -&gt; [172.19.0.5]
	[172.19.0.5] -&gt; [172.19.0.7]
	[172.19.0.4] -&gt; [172.19.0.7]
	[172.19.0.7] -&gt; [172.19.0.4]
	[172.19.0.7] -&gt; [172.19.0.3]
	[172.19.0.7] -&gt; [172.19.0.5]
	[172.19.0.5] -&gt; [172.19.0.7]
	[172.19.0.3] -&gt; [172.19.0.7]
	[172.19.0.4] -&gt; [172.19.0.7]
	[172.19.0.7] -&gt; [172.19.0.4]
	[172.19.0.7] -&gt; [172.19.0.3]
	[172.19.0.7] -&gt; [172.19.0.5]
	[172.19.0.5] -&gt; [172.19.0.7]
	[172.19.0.4] -&gt; [172.19.0.7]
	[172.19.0.3] -&gt; [172.19.0.7]
	[172.19.0.7] -&gt; [172.19.0.3]
	[172.19.0.3] -&gt; [172.19.0.7]
	[172.19.0.7] -&gt; [172.19.0.5]
	[172.19.0.7] -&gt; [172.19.0.3]
	[172.19.0.7] -&gt; [172.19.0.4]
	[172.19.0.7] -&gt; [172.19.0.3]
	[172.19.0.7] -&gt; [172.19.0.3]
	[172.19.0.7] -&gt; [172.19.0.4]
	[172.19.0.7] -&gt; [172.19.0.3]
	[172.19.0.7] -&gt; [172.19.0.3]
	[172.19.0.7] -&gt; [172.19.0.5]
	[172.19.0.7] -&gt; [172.19.0.3]
	[172.19.0.7] -&gt; [172.19.0.5]
	[172.19.0.3] -&gt; [172.19.0.7]
	[172.19.0.3] -&gt; [172.19.0.7]
	[172.19.0.3] -&gt; [172.19.0.7]
	[172.19.0.3] -&gt; [172.19.0.7]
	[172.19.0.3] -&gt; [172.19.0.7]
	[172.19.0.3] -&gt; [172.19.0.7]
	[172.19.0.4] -&gt; [172.19.0.7]
	[172.19.0.4] -&gt; [172.19.0.7]
	[172.19.0.5] -&gt; [172.19.0.7]
	[172.19.0.5] -&gt; [172.19.0.7]
	[172.19.0.5] -&gt; [172.19.0.7]
	[172.19.0.6] -&gt; [172.19.0.3]
	[172.19.0.3] -&gt; [172.19.0.6]
	[172.19.0.6] -&gt; [172.19.0.4]
	[172.19.0.4] -&gt; [172.19.0.6]
	[172.19.0.6] -&gt; [172.19.0.2]
	[172.19.0.6] -&gt; [172.19.0.5]
	[172.19.0.2] -&gt; [172.19.0.6]
	[172.19.0.5] -&gt; [172.19.0.6]
	[172.19.0.6] -&gt; [172.19.0.4]
	[172.19.0.6] -&gt; [172.19.0.3]
	[172.19.0.6] -&gt; [172.19.0.5]
	[172.19.0.6] -&gt; [172.19.0.4]
	[172.19.0.6] -&gt; [172.19.0.3]
	[172.19.0.6] -&gt; [172.19.0.5]
	[172.19.0.5] -&gt; [172.19.0.6]
	[172.19.0.5] -&gt; [172.19.0.6]
	[172.19.0.3] -&gt; [172.19.0.6]
	[172.19.0.3] -&gt; [172.19.0.6]
	[172.19.0.4] -&gt; [172.19.0.6]
	[172.19.0.4] -&gt; [172.19.0.6]
	[172.19.0.6] -&gt; [172.19.0.4]
	[172.19.0.6] -&gt; [172.19.0.3]
	[172.19.0.6] -&gt; [172.19.0.5]
	[172.19.0.3] -&gt; [172.19.0.6]
	[172.19.0.4] -&gt; [172.19.0.6]
	[172.19.0.5] -&gt; [172.19.0.6]
	[172.19.0.6] -&gt; [172.19.0.4]
	[172.19.0.6] -&gt; [172.19.0.3]
	[172.19.0.6] -&gt; [172.19.0.5]
	[172.19.0.5] -&gt; [172.19.0.6]
	[172.19.0.3] -&gt; [172.19.0.6]
	[172.19.0.4] -&gt; [172.19.0.6]
	[172.19.0.6] -&gt; [172.19.0.3]
	[172.19.0.3] -&gt; [172.19.0.6]
	[172.19.0.6] -&gt; [172.19.0.5]
	[172.19.0.6] -&gt; [172.19.0.3]
	[172.19.0.6] -&gt; [172.19.0.4]
	[172.19.0.5] -&gt; [172.19.0.6]
	[172.19.0.3] -&gt; [172.19.0.6]
	[172.19.0.4] -&gt; [172.19.0.6]
	[172.19.0.8] -&gt; [172.19.0.2]
	[172.19.0.8] -&gt; [172.19.0.5]
	[172.19.0.2] -&gt; [172.19.0.8]
	[172.19.0.5] -&gt; [172.19.0.8]
	[172.19.0.3] -&gt; [172.19.0.8]
	[172.19.0.8] -&gt; [172.19.0.4]
	[172.19.0.4] -&gt; [172.19.0.8]
	[172.19.0.8] -&gt; [172.19.0.4]
	[172.19.0.8] -&gt; [172.19.0.3]
	[172.19.0.8] -&gt; [172.19.0.5]
	[172.19.0.8] -&gt; [172.19.0.4]
	[172.19.0.8] -&gt; [172.19.0.3]
	[172.19.0.8] -&gt; [172.19.0.5]
	[172.19.0.3] -&gt; [172.19.0.8]
	[172.19.0.4] -&gt; [172.19.0.8]
	[172.19.0.4] -&gt; [172.19.0.8]
	[172.19.0.3] -&gt; [172.19.0.8]
	[172.19.0.5] -&gt; [172.19.0.8]
	[172.19.0.5] -&gt; [172.19.0.8]
	[172.19.0.8] -&gt; [172.19.0.4]
	[172.19.0.8] -&gt; [172.19.0.3]
	[172.19.0.8] -&gt; [172.19.0.5]
	[172.19.0.5] -&gt; [172.19.0.8]
	[172.19.0.3] -&gt; [172.19.0.8]
	[172.19.0.4] -&gt; [172.19.0.8]
	[172.19.0.8] -&gt; [172.19.0.4]
	[172.19.0.8] -&gt; [172.19.0.3]
	[172.19.0.8] -&gt; [172.19.0.5]
	[172.19.0.3] -&gt; [172.19.0.8]
	[172.19.0.4] -&gt; [172.19.0.8]
	[172.19.0.5] -&gt; [172.19.0.8]
	[172.19.0.8] -&gt; [172.19.0.3]
	[172.19.0.3] -&gt; [172.19.0.8]
	[172.19.0.8] -&gt; [172.19.0.4]
	[172.19.0.8] -&gt; [172.19.0.3]
	[172.19.0.8] -&gt; [172.19.0.5]
	[172.19.0.3] -&gt; [172.19.0.8]
	[172.19.0.4] -&gt; [172.19.0.8]
	[172.19.0.5] -&gt; [172.19.0.8]
	[172.19.0.8] -&gt; [172.19.0.3]
	[172.19.0.8] -&gt; [172.19.0.5]
	[172.19.0.8] -&gt; [172.19.0.4]
	[172.19.0.8] -&gt; [172.19.0.5]
	[172.19.0.8] -&gt; [172.19.0.3]
	[172.19.0.8] -&gt; [172.19.0.4]
	[172.19.0.8] -&gt; [172.19.0.3]
	[172.19.0.8] -&gt; [172.19.0.5]
	[172.19.0.4] -&gt; [172.19.0.8]
	[172.19.0.3] -&gt; [172.19.0.8]
	[172.19.0.3] -&gt; [172.19.0.8]
	[172.19.0.3] -&gt; [172.19.0.8]
	[172.19.0.5] -&gt; [172.19.0.8]
	[172.19.0.5] -&gt; [172.19.0.8]
	[172.19.0.5] -&gt; [172.19.0.8]
	[172.19.0.8] -&gt; [172.19.0.5]
	[172.19.0.5] -&gt; [172.19.0.8]
	[172.19.0.6] -&gt; [172.19.0.5]
	[172.19.0.5] -&gt; [172.19.0.6]
	[172.19.0.8] -&gt; [172.19.0.3]
	[172.19.0.7] -&gt; [172.19.0.3]
	[172.19.0.3] -&gt; [172.19.0.7]
	[172.19.0.8] -&gt; [172.19.0.3]
	[172.19.0.3] -&gt; [172.19.0.8]
	[172.19.0.6] -&gt; [172.19.0.3]
	[172.19.0.3] -&gt; [172.19.0.6]
	[172.19.0.4] -&gt; [172.19.0.7]
	[172.19.0.7] -&gt; [172.19.0.4]
	[172.19.0.8] -&gt; [172.19.0.4]
	[172.19.0.4] -&gt; [172.19.0.8]
	[172.19.0.8] -&gt; [172.19.0.4]
	[172.19.0.8] -&gt; [172.19.0.4]
	[172.19.0.4] -&gt; [172.19.0.8]
	[172.19.0.4] -&gt; [172.19.0.8]
	[172.19.0.4] -&gt; [172.19.0.8]
	[172.19.0.6] -&gt; [172.19.0.4]
	[172.19.0.4] -&gt; [172.19.0.6]
	</desc>
	<g stroke-width="1.0" text-align="left" font="12pt Helvetica, Arial, sans-serif" font-size="12pt" font-family="Helvetica" font-weight="bold" font-style="normal">
		<g font-family="Helvetica" font-size="12pt" font-weight="bold" font-style="normal" stroke-width="3.0" stroke-linejoin="round" stroke-linecap="round" stroke="#33322E">
			<g stroke="transparent" fill="transparent">
				<rect x="0.0" y="0.0" height="480.0" width="6426.5" stroke="none"></rect>
			</g>
			<g transform="translate(977.5, 8)" fill="#33322E" text-align="left">
				<text x="0.0" y="13.5" stroke="none">title: Exchanges between actors</text>
				<text x="0.0" y="28.5" stroke="none">actor System</text>
				<g transform="translate(20, 20)" fill="#33322E" font-family="Helvetica" font-size="12pt" font-weight="normal" font-style="normal">
					<path d="M1913.5 31.0 L1975.75 51 L2082.9837948442064 74.17686281259863 L2083.0 74.2 " fill="none"></path>
					<path d="M2075.3 78.0 L2083.0 74.2 L2077.6 67.6 L2089.5 75.6 Z"></path>
					<path d="M2173.1 71.0 L2215.75 51 L1922.3827327778465 21.286624860523695 L1922.4 21.3 " fill="none"></path>
					<path d="M1929.6 16.7 L1922.4 21.3 L1928.5 27.3 L1915.8 20.6 Z"></path>
					<path d="M1814.8 16.1 L-969.5 51 L-969.5 86.5 L-969.5 86.5 L-969.5 122 L-969.5 122 L-969.5 157.5 L-969.5 157.5 L-969.5 193 L-969.5 193 L-969.5 228.5 L-969.5 228.5 L-969.5 264 L-969.5 264 L-969.5 299.5 L-969.5 299.5 L-969.5 335 L-969.5 335 L-6.662632621310321 368.51051621759166 L-6.7 368.5 " fill="none"></path>
					<path d="M-13.5 373.6 L-6.7 368.5 L-13.1 362.9 L0.0 368.7 Z"></path>
					<path d="M59.2 355.0 L70.5 335 L70.5 299.5 L70.5 299.5 L70.5 264 L70.5 264 L70.5 228.5 L70.5 228.5 L70.5 193 L70.5 193 L70.5 157.5 L70.5 157.5 L70.5 122 L70.5 122 L70.5 86.5 L70.5 86.5 L70.5 51 L70.5 51 L1808.0846371007215 16.63072594117531 L1808.1 16.6 " fill="none"></path>
					<path d="M1801.5 22.1 L1808.1 16.6 L1801.3 11.4 L1814.8 16.5 Z"></path>
					<path d="M1814.8 20.0 L1470.5 51 L1470.5 86.5 L1470.5 86.5 L1470.5 122 L1470.5 122 L1470.5 157.5 L1470.5 157.5 L1470.5 193 L1470.5 193 L2283.8388701048952 226.16890280152072 L2283.8 226.2 " fill="none"></path>
					<path d="M2277.0 231.2 L2283.8 226.2 L2277.4 220.6 L2290.5 226.4 Z"></path>
					<path d="M2349.7 213.0 L2361 193 L2361 157.5 L2361 157.5 L2361 122 L2361 122 L2361 86.5 L2361 86.5 L2361 51 L2361 51 L1922.399639449065 19.59240988490531 L1922.4 19.6 " fill="none"></path>
					<path d="M1929.4 14.7 L1922.4 19.6 L1928.7 25.4 L1915.8 19.1 Z"></path>
					<path d="M1814.8 17.9 L1110.5 51 L1110.5 86.5 L1110.5 86.5 L1110.5 122 L1110.5 122 L1110.5 157.5 L1110.5 157.5 L1110.5 193 L1110.5 193 L1110.5 228.5 L1110.5 228.5 L1110.5 264 L1110.5 264 L1110.5 299.5 L1110.5 299.5 L1110.5 335 L1110.5 335 L4323.833726040448 369.87948242606205 L4323.8 369.9 " fill="none"></path>
					<path d="M4317.1 375.1 L4323.8 369.9 L4317.2 364.5 L4330.5 370.0 Z"></path>
					<path d="M1814.8 18.0 L1150.5 51 L1150.5 86.5 L1150.5 86.5 L1150.5 122 L1150.5 122 L1150.5 157.5 L1150.5 157.5 L1150.5 193 L1150.5 193 L1150.5 228.5 L1150.5 228.5 L1150.5 264 L1150.5 264 L1150.5 299.5 L1150.5 299.5 L1150.5 335 L1150.5 335 L4323.833735824755 369.87179929477753 L4323.8 369.9 " fill="none"></path>
					<path d="M4317.1 375.1 L4323.8 369.9 L4317.2 364.5 L4330.5 369.9 Z"></path>
					<path d="M1814.8 20.6 L1510.5 51 L1510.5 86.5 L1510.5 86.5 L1510.5 122 L1510.5 122 L1510.5 157.5 L1510.5 157.5 L1510.5 193 L1510.5 193 L2283.839415545006 226.05665171805865 L2283.8 226.1 " fill="none"></path>
					<path d="M2277.0 231.1 L2283.8 226.1 L2277.4 220.4 L2290.5 226.3 Z"></path>
					<path d="M1814.8 16.1 L-929.5 51 L-929.5 86.5 L-929.5 86.5 L-929.5 122 L-929.5 122 L-929.5 157.5 L-929.5 157.5 L-929.5 193 L-929.5 193 L-929.5 228.5 L-929.5 228.5 L-929.5 264 L-929.5 264 L-929.5 299.5 L-929.5 299.5 L-929.5 335 L-929.5 335 L-6.662296921189907 368.42932495846713 L-6.7 368.4 " fill="none"></path>
					<path d="M-13.5 373.5 L-6.7 368.4 L-13.1 362.9 L0.0 368.7 Z"></path>
					<path d="M1814.8 18.2 L1190.5 51 L1190.5 86.5 L1190.5 86.5 L1190.5 122 L1190.5 122 L1190.5 157.5 L1190.5 157.5 L1190.5 193 L1190.5 193 L1190.5 228.5 L1190.5 228.5 L1190.5 264 L1190.5 264 L1190.5 299.5 L1190.5 299.5 L1190.5 335 L1190.5 335 L4323.833745979324 369.8639235174004 L4323.8 369.9 " fill="none"></path>
					<path d="M4317.1 375.1 L4323.8 369.9 L4317.2 364.5 L4330.5 369.9 Z"></path>
					<path d="M1814.8 21.2 L1550.5 51 L1550.5 86.5 L1550.5 86.5 L1550.5 122 L1550.5 122 L1550.5 157.5 L1550.5 157.5 L1550.5 193 L1550.5 193 L2283.8400456959557 225.93304443036865 L2283.8 225.9 " fill="none"></path>
					<path d="M2276.9 231.0 L2283.8 225.9 L2277.4 220.3 L2290.5 226.2 Z"></path>
					<path d="M1814.8 16.2 L-889.5 51 L-889.5 86.5 L-889.5 86.5 L-889.5 122 L-889.5 122 L-889.5 157.5 L-889.5 157.5 L-889.5 193 L-889.5 193 L-889.5 228.5 L-889.5 228.5 L-889.5 264 L-889.5 264 L-889.5 299.5 L-889.5 299.5 L-889.5 335 L-889.5 335 L-6.661917521087854 368.34122545532057 L-6.7 368.3 " fill="none"></path>
					<path d="M-13.5 373.4 L-6.7 368.3 L-13.1 362.8 L0.0 368.6 Z"></path>
					<path d="M76.7 355.0 L110.5 335 L110.5 299.5 L110.5 299.5 L110.5 264 L110.5 264 L110.5 228.5 L110.5 228.5 L110.5 193 L110.5 193 L110.5 157.5 L110.5 157.5 L110.5 122 L110.5 122 L110.5 86.5 L110.5 86.5 L110.5 51 L110.5 51 L1808.084697199203 16.656499928438972 L1808.1 16.7 " fill="none"></path>
					<path d="M1801.5 22.1 L1808.1 16.7 L1801.3 11.5 L1814.8 16.5 Z"></path>
					<path d="M94.2 355.0 L150.5 335 L150.5 299.5 L150.5 299.5 L150.5 264 L150.5 264 L150.5 228.5 L150.5 228.5 L150.5 193 L150.5 193 L150.5 157.5 L150.5 157.5 L150.5 122 L150.5 122 L150.5 86.5 L150.5 86.5 L150.5 51 L150.5 51 L1808.0847615505065 16.683476288063574 L1808.1 16.7 " fill="none"></path>
					<path d="M1801.5 22.2 L1808.1 16.7 L1801.3 11.5 L1814.8 16.5 Z"></path>
					<path d="M4389.7 355.0 L4401 335 L4401 299.5 L4401 299.5 L4401 264 L4401 264 L4401 228.5 L4401 228.5 L4401 193 L4401 193 L4401 157.5 L4401 157.5 L4401 122 L4401 122 L4401 86.5 L4401 86.5 L4401 51 L4401 51 L1922.4160134477556 16.300312916255674 L1922.4 16.3 " fill="none"></path>
					<path d="M1929.2 11.1 L1922.4 16.3 L1929.0 21.7 L1915.8 16.2 Z"></path>
					<path d="M4407.2 355.0 L4441 335 L4441 299.5 L4441 299.5 L4441 264 L4441 264 L4441 228.5 L4441 228.5 L4441 193 L4441 193 L4441 157.5 L4441 157.5 L4441 122 L4441 122 L4441 86.5 L4441 86.5 L4441 51 L4441 51 L1922.4160335756258 16.28788476829456 L1922.4 16.3 " fill="none"></path>
					<path d="M1929.2 11.0 L1922.4 16.3 L1929.0 21.7 L1915.8 16.2 Z"></path>
					<path d="M2367.2 213.0 L2401 193 L2401 157.5 L2401 157.5 L2401 122 L2401 122 L2401 86.5 L2401 86.5 L2401 51 L2401 51 L1922.4020790674115 19.287025304513506 L1922.4 19.3 " fill="none"></path>
					<path d="M1929.4 14.4 L1922.4 19.3 L1928.7 25.0 L1915.8 18.8 Z"></path>
					<path d="M2384.7 213.0 L2441 193 L2441 157.5 L2441 157.5 L2441 122 L2441 122 L2441 86.5 L2441 86.5 L2441 51 L2441 51 L1922.4040300332667 19.024043536571373 L1922.4 19.0 " fill="none"></path>
					<path d="M1929.4 14.1 L1922.4 19.0 L1928.7 24.8 L1915.8 18.6 Z"></path>
					<path d="M1814.8 16.2 L-849.5 51 L-849.5 86.5 L-849.5 86.5 L-849.5 122 L-849.5 122 L-849.5 157.5 L-849.5 157.5 L-849.5 193 L-849.5 193 L-849.5 228.5 L-849.5 228.5 L-849.5 264 L-849.5 264 L-849.5 299.5 L-849.5 299.5 L-849.5 335 L-849.5 335 L-6.661486496622605 368.2452969215221 L-6.7 368.2 " fill="none"></path>
					<path d="M-13.5 373.3 L-6.7 368.2 L-13.1 362.7 L0.0 368.5 Z"></path>
					<path d="M101.0 357.7 L190.5 335 L190.5 299.5 L190.5 299.5 L190.5 264 L190.5 264 L190.5 228.5 L190.5 228.5 L190.5 193 L190.5 193 L190.5 157.5 L190.5 157.5 L190.5 122 L190.5 122 L190.5 86.5 L190.5 86.5 L190.5 51 L190.5 51 L1808.084830565522 16.711741164307487 L1808.1 16.7 " fill="none"></path>
					<path d="M1801.5 22.2 L1808.1 16.7 L1801.3 11.5 L1814.8 16.6 Z"></path>
					<path d="M4424.7 355.0 L4481 335 L4481 299.5 L4481 299.5 L4481 264 L4481 264 L4481 228.5 L4481 228.5 L4481 193 L4481 193 L4481 157.5 L4481 157.5 L4481 122 L4481 122 L4481 86.5 L4481 86.5 L4481 51 L4481 51 L1922.4160527873596 16.2758367099116 L1922.4 16.3 " fill="none"></path>
					<path d="M1929.2 11.0 L1922.4 16.3 L1929.0 21.7 L1915.8 16.2 Z"></path>
					<path d="M1814.8 18.3 L1230.5 51 L1230.5 86.5 L1230.5 86.5 L1230.5 122 L1230.5 122 L1230.5 157.5 L1230.5 157.5 L1230.5 193 L1230.5 193 L1230.5 228.5 L1230.5 228.5 L1230.5 264 L1230.5 264 L1230.5 299.5 L1230.5 299.5 L1230.5 335 L1230.5 335 L4323.833756523073 369.8558477564098 L4323.8 369.9 " fill="none"></path>
					<path d="M4317.1 375.1 L4323.8 369.9 L4317.2 364.4 L4330.5 369.9 Z"></path>
					<path d="M1814.8 22.0 L1590.5 51 L1590.5 86.5 L1590.5 86.5 L1590.5 122 L1590.5 122 L1590.5 157.5 L1590.5 157.5 L1590.5 193 L1590.5 193 L2283.8407790416195 225.79626603061624 L2283.8 225.8 " fill="none"></path>
					<path d="M2276.9 230.8 L2283.8 225.8 L2277.4 220.2 L2290.5 226.1 Z"></path>
					<path d="M1814.8 16.2 L-809.5 51 L-809.5 86.5 L-809.5 86.5 L-809.5 122 L-809.5 122 L-809.5 157.5 L-809.5 157.5 L-809.5 193 L-809.5 193 L-809.5 228.5 L-809.5 228.5 L-809.5 264 L-809.5 264 L-809.5 299.5 L-809.5 299.5 L-809.5 335 L-809.5 335 L-6.66099404308483 368.14044733891916 L-6.7 368.1 " fill="none"></path>
					<path d="M-13.5 373.2 L-6.7 368.1 L-13.1 362.5 L0.0 368.4 Z"></path>
					<path d="M101.0 360.5 L230.5 335 L230.5 299.5 L230.5 299.5 L230.5 264 L230.5 264 L230.5 228.5 L230.5 228.5 L230.5 193 L230.5 193 L230.5 157.5 L230.5 157.5 L230.5 122 L230.5 122 L230.5 86.5 L230.5 86.5 L230.5 51 L230.5 51 L1808.0849047059821 16.741389131633362 L1808.1 16.7 " fill="none"></path>
					<path d="M1801.5 22.2 L1808.1 16.7 L1801.3 11.6 L1814.8 16.6 Z"></path>
					<path d="M2391.5 215.7 L2481 193 L2481 157.5 L2481 157.5 L2481 122 L2481 122 L2481 86.5 L2481 86.5 L2481 51 L2481 51 L1922.4056145466354 18.79520798441828 L1922.4 18.8 " fill="none"></path>
					<path d="M1929.4 13.9 L1922.4 18.8 L1928.8 24.5 L1915.8 18.4 Z"></path>
					<path d="M4431.5 357.7 L4521 335 L4521 299.5 L4521 299.5 L4521 264 L4521 264 L4521 228.5 L4521 228.5 L4521 193 L4521 193 L4521 157.5 L4521 157.5 L4521 122 L4521 122 L4521 86.5 L4521 86.5 L4521 51 L4521 51 L1922.416071137721 16.264151567500367 L1922.4 16.3 " fill="none"></path>
					<path d="M1929.2 11.0 L1922.4 16.3 L1929.0 21.7 L1915.8 16.2 Z"></path>
					<path d="M1814.8 18.5 L1270.5 51 L1270.5 86.5 L1270.5 86.5 L1270.5 122 L1270.5 122 L1270.5 157.5 L1270.5 157.5 L1270.5 193 L1270.5 193 L1270.5 228.5 L1270.5 228.5 L1270.5 264 L1270.5 264 L1270.5 299.5 L1270.5 299.5 L1270.5 335 L1270.5 335 L4323.833767476146 369.84756429686644 L4323.8 369.8 " fill="none"></path>
					<path d="M4317.1 375.1 L4323.8 369.8 L4317.2 364.4 L4330.5 369.9 Z"></path>
					<path d="M1814.8 23.1 L1630.5 51 L1630.5 86.5 L1630.5 86.5 L1630.5 122 L1630.5 122 L1630.5 157.5 L1630.5 157.5 L1630.5 193 L1630.5 193 L2283.8416393932453 225.64409317165405 L2283.8 225.6 " fill="none"></path>
					<path d="M2276.9 230.6 L2283.8 225.6 L2277.4 220.0 L2290.5 226.0 Z"></path>
					<path d="M1814.8 16.2 L-769.5 51 L-769.5 86.5 L-769.5 86.5 L-769.5 122 L-769.5 122 L-769.5 157.5 L-769.5 157.5 L-769.5 193 L-769.5 193 L-769.5 228.5 L-769.5 228.5 L-769.5 264 L-769.5 264 L-769.5 299.5 L-769.5 299.5 L-769.5 335 L-769.5 335 L-6.660427913748453 368.0253717183682 L-6.7 368.0 " fill="none"></path>
					<path d="M-13.6 373.1 L-6.7 368.0 L-13.1 362.4 L0.0 368.3 Z"></path>
					<path d="M101.0 362.4 L270.5 335 L270.5 299.5 L270.5 299.5 L270.5 264 L270.5 264 L270.5 228.5 L270.5 228.5 L270.5 193 L270.5 193 L270.5 157.5 L270.5 157.5 L270.5 122 L270.5 122 L270.5 86.5 L270.5 86.5 L270.5 51 L270.5 51 L1808.0849844922013 16.77252425178044 L1808.1 16.8 " fill="none"></path>
					<path d="M1801.5 22.3 L1808.1 16.8 L1801.3 11.6 L1814.8 16.6 Z"></path>
					<path d="M4431.5 360.5 L4561 335 L4561 299.5 L4561 299.5 L4561 264 L4561 264 L4561 228.5 L4561 228.5 L4561 193 L4561 193 L4561 157.5 L4561 157.5 L4561 122 L4561 122 L4561 86.5 L4561 86.5 L4561 51 L4561 51 L1922.4160886774423 16.25281318670099 L1922.4 16.3 " fill="none"></path>
					<path d="M1929.2 11.0 L1922.4 16.3 L1929.0 21.7 L1915.8 16.2 Z"></path>
					<path d="M2391.5 218.5 L2521 193 L2521 157.5 L2521 157.5 L2521 122 L2521 122 L2521 86.5 L2521 86.5 L2521 51 L2521 51 L1922.4069188910546 18.594274678814244 L1922.4 18.6 " fill="none"></path>
					<path d="M1929.4 13.6 L1922.4 18.6 L1928.8 24.3 L1915.8 18.2 Z"></path>
					<path d="M1814.8 24.7 L1670.5 51 L1670.5 86.5 L1670.5 86.5 L1670.5 122 L1670.5 122 L1670.5 157.5 L1670.5 157.5 L1670.5 193 L1670.5 193 L2283.842657842639 225.4737723391703 L2283.8 225.5 " fill="none"></path>
					<path d="M2276.9 230.4 L2283.8 225.5 L2277.5 219.8 L2290.5 225.8 Z"></path>
					<path d="M2391.5 220.4 L2561 193 L2561 157.5 L2561 157.5 L2561 122 L2561 122 L2561 86.5 L2561 86.5 L2561 51 L2561 51 L1922.4080053876044 18.416434338857286 L1922.4 18.4 " fill="none"></path>
					<path d="M1929.3 13.4 L1922.4 18.4 L1928.8 24.1 L1915.8 18.1 Z"></path>
					<path d="M1814.8 16.2 L-729.5 51 L-729.5 86.5 L-729.5 86.5 L-729.5 122 L-729.5 122 L-729.5 157.5 L-729.5 157.5 L-729.5 193 L-729.5 193 L-729.5 228.5 L-729.5 228.5 L-729.5 264 L-729.5 264 L-729.5 299.5 L-729.5 299.5 L-729.5 335 L-729.5 335 L-6.659772652332675 367.8984975267208 L-6.7 367.9 " fill="none"></path>
					<path d="M-13.6 372.9 L-6.7 367.9 L-13.1 362.3 L0.0 368.2 Z"></path>
					<path d="M1814.8 27.1 L1710.5 51 L1710.5 86.5 L1710.5 86.5 L1710.5 122 L1710.5 122 L1710.5 157.5 L1710.5 157.5 L1710.5 193 L1710.5 193 L2283.843875604114 225.28185183813807 L2283.8 225.3 " fill="none"></path>
					<path d="M2276.9 230.2 L2283.8 225.3 L2277.5 219.6 L2290.5 225.7 Z"></path>
					<path d="M1814.8 18.7 L1310.5 51 L1310.5 86.5 L1310.5 86.5 L1310.5 122 L1310.5 122 L1310.5 157.5 L1310.5 157.5 L1310.5 193 L1310.5 193 L1310.5 228.5 L1310.5 228.5 L1310.5 264 L1310.5 264 L1310.5 299.5 L1310.5 299.5 L1310.5 335 L1310.5 335 L4323.833778860007 369.83906502183044 L4323.8 369.8 " fill="none"></path>
					<path d="M4317.1 375.1 L4323.8 369.8 L4317.2 364.4 L4330.5 369.9 Z"></path>
					<path d="M1815.1 31.0 L1750.5 51 L1750.5 86.5 L1750.5 86.5 L1750.5 122 L1750.5 122 L1750.5 157.5 L1750.5 157.5 L1750.5 193 L1750.5 193 L2283.845348238852 225.06394557574808 L2283.8 225.1 " fill="none"></path>
					<path d="M2276.9 230.0 L2283.8 225.1 L2277.5 219.3 L2290.5 225.5 Z"></path>
					<path d="M1832.6 31.0 L1790.5 51 L1790.5 86.5 L1790.5 86.5 L1790.5 122 L1790.5 122 L1790.5 157.5 L1790.5 157.5 L1790.5 193 L1790.5 193 L2283.8471520862886 224.81439400374794 L2283.8 224.8 " fill="none"></path>
					<path d="M2276.9 229.7 L2283.8 224.8 L2277.5 219.1 L2290.5 225.2 Z"></path>
					<path d="M1814.8 19.0 L1350.5 51 L1350.5 86.5 L1350.5 86.5 L1350.5 122 L1350.5 122 L1350.5 157.5 L1350.5 157.5 L1350.5 193 L1350.5 193 L1350.5 228.5 L1350.5 228.5 L1350.5 264 L1350.5 264 L1350.5 299.5 L1350.5 299.5 L1350.5 335 L1350.5 335 L4323.833790697548 369.8303413858317 L4323.8 369.8 " fill="none"></path>
					<path d="M4317.1 375.1 L4323.8 369.8 L4317.2 364.4 L4330.5 369.9 Z"></path>
					<path d="M1850.1 31.0 L1830.5 51 L1830.5 86.5 L1830.5 86.5 L1830.5 122 L1830.5 122 L1830.5 157.5 L1830.5 157.5 L1830.5 193 L1830.5 193 L2283.8493943239832 224.52576591283332 L2283.8 224.5 " fill="none"></path>
					<path d="M2276.8 229.4 L2283.8 224.5 L2277.6 218.7 L2290.5 225.0 Z"></path>
					<path d="M1867.5 31.0 L1870.5 51 L1870.5 86.5 L1870.5 86.5 L1870.5 122 L1870.5 122 L1870.5 157.5 L1870.5 157.5 L1870.5 193 L1870.5 193 L2283.8522291951303 224.18810655988764 L2283.9 224.2 " fill="none"></path>
					<path d="M2276.8 229.0 L2283.9 224.2 L2277.6 218.4 L2290.5 224.7 Z"></path>
					<path d="M1814.8 16.2 L-689.5 51 L-689.5 86.5 L-689.5 86.5 L-689.5 122 L-689.5 122 L-689.5 157.5 L-689.5 157.5 L-689.5 193 L-689.5 193 L-689.5 228.5 L-689.5 228.5 L-689.5 264 L-689.5 264 L-689.5 299.5 L-689.5 299.5 L-689.5 335 L-689.5 335 L-6.659008528712549 367.75791242869013 L-6.7 367.8 " fill="none"></path>
					<path d="M-13.6 372.8 L-6.7 367.8 L-13.1 362.1 L0.0 368.1 Z"></path>
					<path d="M1885.0 31.0 L1910.5 51 L1910.5 86.5 L1910.5 86.5 L1910.5 122 L1910.5 122 L1910.5 157.5 L1910.5 157.5 L1910.5 193 L1910.5 193 L2283.85588512775 223.78776753085975 L2283.9 223.8 " fill="none"></path>
					<path d="M2276.8 228.6 L2283.9 223.8 L2277.7 217.9 L2290.5 224.3 Z"></path>
					<path d="M1814.8 16.2 L-649.5 51 L-649.5 86.5 L-649.5 86.5 L-649.5 122 L-649.5 122 L-649.5 157.5 L-649.5 157.5 L-649.5 193 L-649.5 193 L-649.5 228.5 L-649.5 228.5 L-649.5 264 L-649.5 264 L-649.5 299.5 L-649.5 299.5 L-649.5 335 L-649.5 335 L-6.658110039223378 367.60126727658223 L-6.7 367.6 " fill="none"></path>
					<path d="M-13.6 372.6 L-6.7 367.6 L-13.0 361.9 L0.0 367.9 Z"></path>
					<path d="M2391.5 221.6 L2601 193 L2601 157.5 L2601 157.5 L2601 122 L2601 122 L2601 86.5 L2601 86.5 L2601 51 L2601 51 L1922.4089199545576 18.25792274330519 L1922.4 18.3 " fill="none"></path>
					<path d="M1929.3 13.3 L1922.4 18.3 L1928.8 23.9 L1915.8 17.9 Z"></path>
					<path d="M2391.5 222.5 L2641 193 L2641 157.5 L2641 157.5 L2641 122 L2641 122 L2641 86.5 L2641 86.5 L2641 51 L2641 51 L1922.4096970254834 18.11575152356385 L1922.4 18.1 " fill="none"></path>
					<path d="M1929.3 13.1 L1922.4 18.1 L1928.8 23.7 L1915.8 17.8 Z"></path>
					<path d="M2391.5 223.2 L2681 193 L2681 157.5 L2681 157.5 L2681 122 L2681 122 L2681 86.5 L2681 86.5 L2681 51 L2681 51 L1922.4103628298965 17.987518088214923 L1922.4 18.0 " fill="none"></path>
					<path d="M1929.3 12.9 L1922.4 18.0 L1928.8 23.6 L1915.8 17.7 Z"></path>
					<path d="M2391.5 223.8 L2721 193 L2721 157.5 L2721 157.5 L2721 122 L2721 122 L2721 86.5 L2721 86.5 L2721 51 L2721 51 L1922.4109376308809 17.87126881203187 L1922.4 17.9 " fill="none"></path>
					<path d="M1929.3 12.8 L1922.4 17.9 L1928.9 23.5 L1915.8 17.6 Z"></path>
					<path d="M2391.5 224.2 L2761 193 L2761 157.5 L2761 157.5 L2761 122 L2761 122 L2761 86.5 L2761 86.5 L2761 51 L2761 51 L1922.4114372820154 17.76539885404582 L1922.4 17.8 " fill="none"></path>
					<path d="M1929.3 12.7 L1922.4 17.8 L1928.9 23.4 L1915.8 17.5 Z"></path>
					<path d="M2391.5 224.6 L2801 193 L2801 157.5 L2801 157.5 L2801 122 L2801 122 L2801 86.5 L2801 86.5 L2801 51 L2801 51 L1922.411874330286 17.668577652925627 L1922.4 17.7 " fill="none"></path>
					<path d="M1929.3 12.6 L1922.4 17.7 L1928.9 23.3 L1915.8 17.4 Z"></path>
					<path d="M4431.5 362.4 L4601 335 L4601 299.5 L4601 299.5 L4601 264 L4601 264 L4601 228.5 L4601 228.5 L4601 193 L4601 193 L4601 157.5 L4601 157.5 L4601 122 L4601 122 L4601 86.5 L4601 86.5 L4601 51 L4601 51 L1922.4161054535753 16.24180635789159 L1922.4 16.2 " fill="none"></path>
					<path d="M1929.2 11.0 L1922.4 16.2 L1929.0 21.7 L1915.8 16.2 Z"></path>
					<path d="M4431.5 363.6 L4641 335 L4641 299.5 L4641 299.5 L4641 264 L4641 264 L4641 228.5 L4641 228.5 L4641 193 L4641 193 L4641 157.5 L4641 157.5 L4641 122 L4641 122 L4641 86.5 L4641 86.5 L4641 51 L4641 51 L1922.416121509807 16.23111674812146 L1922.4 16.2 " fill="none"></path>
					<path d="M1929.2 11.0 L1922.4 16.2 L1929.0 21.6 L1915.8 16.1 Z"></path>
					<path d="M101.0 363.6 L310.5 335 L310.5 299.5 L310.5 299.5 L310.5 264 L310.5 264 L310.5 228.5 L310.5 228.5 L310.5 193 L310.5 193 L310.5 157.5 L310.5 157.5 L310.5 122 L310.5 122 L310.5 86.5 L310.5 86.5 L310.5 51 L310.5 51 L1808.0850705122264 16.805261293980358 L1808.1 16.8 " fill="none"></path>
					<path d="M1801.5 22.3 L1808.1 16.8 L1801.3 11.6 L1814.8 16.7 Z"></path>
					<path d="M101.0 364.5 L350.5 335 L350.5 299.5 L350.5 299.5 L350.5 264 L350.5 264 L350.5 228.5 L350.5 228.5 L350.5 193 L350.5 193 L350.5 157.5 L350.5 157.5 L350.5 122 L350.5 122 L350.5 86.5 L350.5 86.5 L350.5 51 L350.5 51 L1808.0851634326966 16.83972714846626 L1808.1 16.8 " fill="none"></path>
					<path d="M1801.5 22.3 L1808.1 16.8 L1801.3 11.7 L1814.8 16.7 Z"></path>
					<path d="M101.0 365.2 L390.5 335 L390.5 299.5 L390.5 299.5 L390.5 264 L390.5 264 L390.5 228.5 L390.5 228.5 L390.5 193 L390.5 193 L390.5 157.5 L390.5 157.5 L390.5 122 L390.5 122 L390.5 86.5 L390.5 86.5 L390.5 51 L390.5 51 L1808.0852640117926 16.876062469965323 L1808.1 16.9 " fill="none"></path>
					<path d="M1801.5 22.4 L1808.1 16.9 L1801.3 11.7 L1814.8 16.7 Z"></path>
					<path d="M2089.5 168.4 L1975.75 193 L2283.8646006984536 222.94679897274497 L2283.9 222.9 " fill="none"></path>
					<path d="M2276.7 227.6 L2283.9 222.9 L2277.7 217.0 L2290.5 223.6 Z"></path>
					<path d="M2391.5 224.9 L2841 193 L2197.1581343876296 160.39459881706253 L2197.2 160.4 " fill="none"></path>
					<path d="M2204.1 155.4 L2197.2 160.4 L2203.5 166.1 L2190.5 160.1 Z"></path>
					<path d="M2089.5 159.9 L1390.5 193 L1390.5 228.5 L1390.5 228.5 L1390.5 264 L1390.5 264 L1390.5 299.5 L1390.5 299.5 L1390.5 335 L1390.5 335 L4323.833803013196 369.82138438621246 L4323.8 369.8 " fill="none"></path>
					<path d="M4317.1 375.1 L4323.8 369.8 L4317.2 364.4 L4330.5 369.9 Z"></path>
					<path d="M4431.5 364.5 L4681 335 L4681 299.5 L4681 299.5 L4681 264 L4681 264 L4681 228.5 L4681 228.5 L4681 193 L4681 193 L2197.166016143824 158.29865941483897 L2197.2 158.3 " fill="none"></path>
					<path d="M2203.9 153.1 L2197.2 158.3 L2203.8 163.7 L2190.5 158.2 Z"></path>
					<path d="M2173.1 142.0 L2215.75 122 L2179.110575812737 104.82904873072148 L2179.1 104.8 " fill="none"></path>
					<path d="M2187.4 102.8 L2179.1 104.8 L2182.9 112.5 L2173.1 102.0 Z"></path>
					<path d="M2089.5 158.2 L-609.5 193 L-609.5 228.5 L-609.5 228.5 L-609.5 264 L-609.5 264 L-609.5 299.5 L-609.5 299.5 L-609.5 335 L-609.5 335 L-6.657043755583646 367.42564385860123 L-6.7 367.4 " fill="none"></path>
					<path d="M-13.6 372.4 L-6.7 367.4 L-13.0 361.7 L0.0 367.8 Z"></path>
					<path d="M2089.5 97.4 L1975.75 122 L2082.9837948442064 145.17686281259864 L2083.0 145.2 " fill="none"></path>
					<path d="M2075.3 149.0 L2083.0 145.2 L2077.6 138.6 L2089.5 146.6 Z"></path>
					<path d="M101.0 365.8 L430.5 335 L430.5 299.5 L430.5 299.5 L430.5 264 L430.5 264 L430.5 228.5 L430.5 228.5 L430.5 193 L430.5 193 L2082.834770333456 158.68711064823768 L2082.8 158.7 " fill="none"></path>
					<path d="M2076.3 164.2 L2082.8 158.7 L2076.1 153.5 L2089.5 158.5 Z"></path>
					<path d="M2190.5 158.7 L3681 193 L3681 228.5 L3681 228.5 L3681 264 L3681 264 L3681 299.5 L3681 299.5 L3681 335 L3681 335 L4323.841889960777 367.60126727658223 L4323.8 367.6 " fill="none"></path>
					<path d="M4316.9 372.6 L4323.8 367.6 L4317.5 361.9 L4330.5 367.9 Z"></path>
					<path d="M2089.5 171.9 L2015.75 193 L2283.872692106032 222.26473657114263 L2283.9 222.3 " fill="none"></path>
					<path d="M2276.7 226.8 L2283.9 222.3 L2277.8 216.2 L2290.5 223.0 Z"></path>
					<path d="M2089.5 158.2 L-569.5 193 L-569.5 228.5 L-569.5 228.5 L-569.5 264 L-569.5 264 L-569.5 299.5 L-569.5 299.5 L-569.5 335 L-569.5 335 L-6.655765178130907 367.22737150996187 L-6.7 367.2 " fill="none"></path>
					<path d="M-13.6 372.2 L-6.7 367.2 L-13.0 361.5 L0.0 367.6 Z"></path>
					<path d="M2190.5 158.6 L3721 193 L3721 228.5 L3721 228.5 L3721 264 L3721 264 L3721 299.5 L3721 299.5 L3721 335 L3721 335 L4323.842956244416 367.42564385860123 L4323.8 367.4 " fill="none"></path>
					<path d="M4316.9 372.4 L4323.8 367.4 L4317.5 361.7 L4330.5 367.8 Z"></path>
					<path d="M2103.2 173.0 L2055.75 193 L2283.884369109892 221.39183208904873 L2283.9 221.4 " fill="none"></path>
					<path d="M2276.6 225.9 L2283.9 221.4 L2277.9 215.3 L2290.5 222.2 Z"></path>
					<path d="M2089.5 158.2 L-529.5 193 L-529.5 228.5 L-529.5 228.5 L-529.5 264 L-529.5 264 L-529.5 299.5 L-529.5 299.5 L-529.5 335 L-529.5 335 L-6.654214030148853 367.0017679343616 L-6.7 367.0 " fill="none"></path>
					<path d="M-13.6 371.9 L-6.7 367.0 L-13.0 361.3 L0.0 367.4 Z"></path>
					<path d="M101.0 366.2 L470.5 335 L470.5 299.5 L470.5 299.5 L470.5 264 L470.5 264 L470.5 228.5 L470.5 228.5 L470.5 193 L470.5 193 L2082.834839993686 158.7155514706344 L2082.8 158.7 " fill="none"></path>
					<path d="M2076.3 164.2 L2082.8 158.7 L2076.1 153.5 L2089.5 158.6 Z"></path>
					<path d="M101.0 366.6 L510.5 335 L510.5 299.5 L510.5 299.5 L510.5 264 L510.5 264 L510.5 228.5 L510.5 228.5 L510.5 193 L510.5 193 L2082.83491484413 158.7453884768539 L2082.8 158.7 " fill="none"></path>
					<path d="M2076.3 164.2 L2082.8 158.7 L2076.1 153.6 L2089.5 158.6 Z"></path>
					<path d="M2391.5 225.2 L2881 193 L2197.159029149021 160.2383880361542 L2197.2 160.2 " fill="none"></path>
					<path d="M2204.1 155.2 L2197.2 160.2 L2203.6 165.9 L2190.5 159.9 Z"></path>
					<path d="M2391.5 225.4 L2921 193 L2197.1597902680687 160.0981722849122 L2197.2 160.1 " fill="none"></path>
					<path d="M2204.1 155.1 L2197.2 160.1 L2203.6 165.7 L2190.5 159.8 Z"></path>
					<path d="M4431.5 365.2 L4721 335 L4721 299.5 L4721 299.5 L4721 264 L4721 264 L4721 228.5 L4721 228.5 L4721 193 L4721 193 L2197.1660361481763 158.28628217096485 L2197.2 158.3 " fill="none"></path>
					<path d="M2203.9 153.0 L2197.2 158.3 L2203.8 163.7 L2190.5 158.2 Z"></path>
					<path d="M4431.5 365.8 L4761 335 L4761 299.5 L4761 299.5 L4761 264 L4761 264 L4761 228.5 L4761 228.5 L4761 193 L4761 193 L2197.1660552438234 158.2742827017 L2197.2 158.3 " fill="none"></path>
					<path d="M2203.9 153.0 L2197.2 158.3 L2203.8 163.7 L2190.5 158.2 Z"></path>
					<path d="M2190.5 158.6 L3761 193 L3761 228.5 L3761 228.5 L3761 264 L3761 264 L3761 299.5 L3761 299.5 L3761 335 L3761 335 L4323.844234821869 367.22737150996187 L4323.8 367.2 " fill="none"></path>
					<path d="M4316.9 372.2 L4323.8 367.2 L4317.5 361.5 L4330.5 367.6 Z"></path>
					<path d="M2120.7 173.0 L2095.75 193 L2283.902096740502 220.2350639522439 L2283.9 220.2 " fill="none"></path>
					<path d="M2276.5 224.6 L2283.9 220.2 L2278.1 214.0 L2290.5 221.2 Z"></path>
					<path d="M2089.5 158.2 L-489.5 193 L-489.5 228.5 L-489.5 228.5 L-489.5 264 L-489.5 264 L-489.5 299.5 L-489.5 299.5 L-489.5 335 L-489.5 335 L-6.6523070450065145 366.74276499981903 L-6.7 366.7 " fill="none"></path>
					<path d="M-13.7 371.6 L-6.7 366.7 L-13.0 361.0 L0.0 367.2 Z"></path>
					<path d="M2391.5 225.6 L2961 193 L2197.160443081167 159.9716147739116 L2197.2 160.0 " fill="none"></path>
					<path d="M2204.1 154.9 L2197.2 160.0 L2203.6 165.6 L2190.5 159.7 Z"></path>
					<path d="M4431.5 366.2 L4801 335 L4801 299.5 L4801 299.5 L4801 264 L4801 264 L4801 228.5 L4801 228.5 L4801 193 L4801 193 L2197.1660734849784 158.26264397170866 L2197.2 158.3 " fill="none"></path>
					<path d="M2203.9 153.0 L2197.2 158.3 L2203.8 163.7 L2190.5 158.2 Z"></path>
					<path d="M101.0 366.9 L550.5 335 L550.5 299.5 L550.5 299.5 L550.5 264 L550.5 264 L550.5 228.5 L550.5 228.5 L550.5 193 L550.5 193 L2082.8349954134383 158.7767270605995 L2082.8 158.8 " fill="none"></path>
					<path d="M2076.3 164.3 L2082.8 158.8 L2076.1 153.6 L2089.5 158.6 Z"></path>
					<path d="M2190.5 158.6 L3801 193 L3801 228.5 L3801 228.5 L3801 264 L3801 264 L3801 299.5 L3801 299.5 L3801 335 L3801 335 L4323.845785969851 367.0017679343616 L4323.8 367.0 " fill="none"></path>
					<path d="M4316.9 371.9 L4323.8 367.0 L4317.5 361.3 L4330.5 367.4 Z"></path>
					<path d="M2138.1 173.0 L2135.75 193 L2283.930867383897 218.62933394459608 L2283.9 218.6 " fill="none"></path>
					<path d="M2276.5 222.7 L2283.9 218.6 L2278.3 212.2 L2290.5 219.8 Z"></path>
					<path d="M2089.5 158.2 L-449.5 193 L-449.5 228.5 L-449.5 228.5 L-449.5 264 L-449.5 264 L-449.5 299.5 L-449.5 299.5 L-449.5 335 L-449.5 335 L-6.649926596832079 366.4423552116249 L-6.6 366.4 " fill="none"></path>
					<path d="M-13.7 371.3 L-6.6 366.4 L-12.9 360.7 L0.0 366.9 Z"></path>
					<path d="M101.0 367.2 L590.5 335 L590.5 299.5 L590.5 299.5 L590.5 264 L590.5 264 L590.5 228.5 L590.5 228.5 L590.5 193 L590.5 193 L2082.8350822993125 158.80968349685344 L2082.8 158.8 " fill="none"></path>
					<path d="M2076.3 164.3 L2082.8 158.8 L2076.0 153.6 L2089.5 158.7 Z"></path>
					<path d="M2391.5 225.8 L3001 193 L2197.161007195494 159.85681272408831 L2197.2 159.9 " fill="none"></path>
					<path d="M2204.0 154.8 L2197.2 159.9 L2203.6 165.5 L2190.5 159.6 Z"></path>
					<path d="M4431.5 366.6 L4841 335 L4841 299.5 L4841 299.5 L4841 264 L4841 264 L4841 228.5 L4841 228.5 L4841 193 L4841 193 L2197.1660909218717 158.25134995473027 L2197.2 158.3 " fill="none"></path>
					<path d="M2203.9 153.0 L2197.2 158.3 L2203.8 163.7 L2190.5 158.2 Z"></path>
					<path d="M2155.6 173.0 L2175.75 193 L2283.9820396278874 216.2510584374584 L2284.0 216.3 " fill="none"></path>
					<path d="M2276.3 220.1 L2284.0 216.3 L2278.6 209.6 L2290.5 217.7 Z"></path>
					<path d="M2391.5 225.9 L3041 193 L2197.1614979755927 159.75220108560882 L2197.2 159.8 " fill="none"></path>
					<path d="M2204.0 154.7 L2197.2 159.8 L2203.6 165.3 L2190.5 159.5 Z"></path>
					<path d="M2089.5 158.2 L-409.5 193 L-409.5 228.5 L-409.5 228.5 L-409.5 264 L-409.5 264 L-409.5 299.5 L-409.5 299.5 L-409.5 335 L-409.5 335 L-6.646902198569261 366.0897499390235 L-6.6 366.1 " fill="none"></path>
					<path d="M-13.7 370.9 L-6.6 366.1 L-12.9 360.3 L0.0 366.6 Z"></path>
					<path d="M2173.1 173.0 L2215.75 193 L2284.085989741675 212.36868371919726 L2284.1 212.4 " fill="none"></path>
					<path d="M2276.2 215.7 L2284.1 212.4 L2279.1 205.4 L2290.5 214.2 Z"></path>
					<path d="M2190.5 158.6 L3841 193 L3841 228.5 L3841 228.5 L3841 264 L3841 264 L3841 299.5 L3841 299.5 L3841 335 L3841 335 L4323.847692954993 366.74276499981903 L4323.8 366.7 " fill="none"></path>
					<path d="M4316.8 371.6 L4323.8 366.7 L4317.5 361.0 L4330.5 367.2 Z"></path>
					<path d="M101.0 367.4 L630.5 335 L630.5 299.5 L630.5 299.5 L630.5 264 L630.5 264 L630.5 228.5 L630.5 228.5 L630.5 193 L630.5 193 L2082.835176179619 158.8443863833213 L2082.8 158.8 " fill="none"></path>
					<path d="M2076.3 164.3 L2082.8 158.8 L2076.0 153.7 L2089.5 158.7 Z"></path>
					<path d="M2391.5 226.1 L3081 193 L2197.161927598797 159.65648079676652 L2197.2 159.7 " fill="none"></path>
					<path d="M2204.0 154.6 L2197.2 159.7 L2203.6 165.2 L2190.5 159.4 Z"></path>
					<path d="M4431.5 366.9 L4881 335 L4881 299.5 L4881 299.5 L4881 264 L4881 264 L4881 228.5 L4881 228.5 L4881 193 L4881 193 L2197.1661076010955 158.2403855599558 L2197.2 158.2 " fill="none"></path>
					<path d="M2203.9 153.0 L2197.2 158.2 L2203.8 163.7 L2190.5 158.2 Z"></path>
					<path d="M3189.7 284.0 L3201 264 L3201 228.5 L3201 228.5 L3201 193 L3201 193 L3201 157.5 L3201 157.5 L3201 122 L3201 122 L2197.1629381144935 88.41261480024932 L2197.2 88.4 " fill="none"></path>
					<path d="M2204.0 83.3 L2197.2 88.4 L2203.6 94.0 L2190.5 88.2 Z"></path>
					<path d="M3130.5 300.0 L-369.5 335 L-6.642979265420543 365.6700577049466 L-6.6 365.7 " fill="none"></path>
					<path d="M-13.7 370.4 L-6.6 365.7 L-12.8 359.8 L0.0 366.2 Z"></path>
					<path d="M2089.5 89.0 L1430.5 122 L1430.5 157.5 L1430.5 157.5 L1430.5 193 L1430.5 193 L1430.5 228.5 L1430.5 228.5 L1430.5 264 L1430.5 264 L3123.834703827797 298.3406923655452 L3123.8 298.3 " fill="none"></path>
					<path d="M3117.1 303.5 L3123.8 298.3 L3117.3 292.9 L3130.5 298.5 Z"></path>
					<path d="M101.0 367.6 L670.5 335 L3123.8339997561775 300.3083620827149 L3123.8 300.3 " fill="none"></path>
					<path d="M3117.2 305.7 L3123.8 300.3 L3117.1 295.1 L3130.5 300.2 Z"></path>
					<path d="M2290.5 230.6 L1495.75 264 L3123.834811972732 298.29580823321885 L3123.8 298.3 " fill="none"></path>
					<path d="M3117.1 303.5 L3123.8 298.3 L3117.3 292.8 L3130.5 298.4 Z"></path>
					<path d="M3231.5 302.1 L3881 335 L4323.850073403168 366.4423552116249 L4323.9 366.4 " fill="none"></path>
					<path d="M4316.8 371.3 L4323.9 366.4 L4317.6 360.7 L4330.5 366.9 Z"></path>
					<path d="M4431.5 367.2 L4921 335 L3238.165279587023 300.6663031180111 L3238.2 300.7 " fill="none"></path>
					<path d="M3244.9 295.5 L3238.2 300.7 L3244.7 306.1 L3231.5 300.5 Z"></path>
					<path d="M3231.5 301.9 L3921 335 L4323.8530978014305 366.0897499390235 L4323.9 366.1 " fill="none"></path>
					<path d="M4316.8 370.9 L4323.9 366.1 L4317.6 360.3 L4330.5 366.6 Z"></path>
					<path d="M3207.2 284.0 L3241 264 L2398.1614864966227 230.7547030784779 L2398.2 230.8 " fill="none"></path>
					<path d="M2405.0 225.7 L2398.2 230.8 L2404.6 236.3 L2391.5 230.5 Z"></path>
					<path d="M3130.5 300.0 L-329.5 335 L-6.637764071487785 365.1621299354268 L-6.6 365.2 " fill="none"></path>
					<path d="M-13.8 369.9 L-6.6 365.2 L-12.8 359.2 L0.0 365.8 Z"></path>
					<path d="M3231.5 301.8 L3961 335 L4323.857020734579 365.6700577049466 L4323.9 365.7 " fill="none"></path>
					<path d="M4316.8 370.4 L4323.9 365.7 L4317.7 359.8 L4330.5 366.2 Z"></path>
					<path d="M3224.7 284.0 L3281 264 L2398.161917521088 230.65877454467937 L2398.2 230.7 " fill="none"></path>
					<path d="M2405.0 225.6 L2398.2 230.7 L2404.6 236.2 L2391.5 230.4 Z"></path>
					<path d="M3130.5 300.0 L-289.5 335 L-6.6306217281561715 364.534890966619 L-6.6 364.5 " fill="none"></path>
					<path d="M-13.8 369.1 L-6.6 364.5 L-12.7 358.5 L0.0 365.2 Z"></path>
					<path d="M2290.5 230.7 L1535.75 264 L3123.834884719934 298.26653299350113 L3123.8 298.3 " fill="none"></path>
					<path d="M3117.1 303.5 L3123.8 298.3 L3117.3 292.8 L3130.5 298.4 Z"></path>
					<path d="M4431.5 367.4 L4961 335 L3238.165341208843 300.6400952881539 L3238.2 300.6 " fill="none"></path>
					<path d="M3244.9 295.4 L3238.2 300.6 L3244.7 306.1 L3231.5 300.5 Z"></path>
					<path d="M4431.5 367.6 L5001 335 L3238.1653988140483 300.6150393724718 L3238.2 300.6 " fill="none"></path>
					<path d="M3244.9 295.4 L3238.2 300.6 L3244.7 306.1 L3231.5 300.5 Z"></path>
					<path d="M2290.5 230.8 L1575.75 264 L3123.834962970157 298.2357989007573 L3123.8 298.2 " fill="none"></path>
					<path d="M3117.1 303.4 L3123.8 298.2 L3117.3 292.8 L3130.5 298.4 Z"></path>
					<path d="M101.0 367.8 L710.5 335 L3123.834021507689 300.3214500046456 L3123.8 300.3 " fill="none"></path>
					<path d="M3117.2 305.8 L3123.8 300.3 L3117.1 295.1 L3130.5 300.2 Z"></path>
					<path d="M101.0 367.9 L750.5 335 L3123.834044341713 300.3349687002136 L3123.8 300.3 " fill="none"></path>
					<path d="M3117.2 305.8 L3123.8 300.3 L3117.1 295.1 L3130.5 300.2 Z"></path>
					<path d="M3231.5 301.7 L4001 335 L4323.862235928512 365.1621299354268 L4323.9 365.2 " fill="none"></path>
					<path d="M4316.7 369.9 L4323.9 365.2 L4317.7 359.2 L4330.5 365.8 Z"></path>
					<path d="M3231.5 286.7 L3321 264 L2398.16229692119 230.5706750415329 L2398.2 230.6 " fill="none"></path>
					<path d="M2405.0 225.5 L2398.2 230.6 L2404.6 236.1 L2391.5 230.3 Z"></path>
					<path d="M3130.5 300.0 L-249.5 335 L-6.620475284347066 363.74074375801894 L-6.6 363.7 " fill="none"></path>
					<path d="M-13.9 368.3 L-6.6 363.7 L-12.6 357.7 L0.0 364.5 Z"></path>
					<path d="M101.0 368.1 L790.5 335 L3123.8340683312863 300.34893979261216 L3123.8 300.3 " fill="none"></path>
					<path d="M3117.2 305.8 L3123.8 300.3 L3117.1 295.1 L3130.5 300.2 Z"></path>
					<path d="M2290.5 231.0 L1615.75 264 L3123.835047292692 298.20349412483023 L3123.8 298.2 " fill="none"></path>
					<path d="M3117.0 303.4 L3123.8 298.2 L3117.3 292.7 L3130.5 298.4 Z"></path>
					<path d="M4431.5 367.8 L5041 335 L3238.1654527442524 300.59106106044135 L3238.2 300.6 " fill="none"></path>
					<path d="M3244.9 295.4 L3238.2 300.6 L3244.7 306.1 L3231.5 300.5 Z"></path>
					<path d="M3231.5 301.6 L4041 335 L4323.869378271844 364.534890966619 L4323.9 364.5 " fill="none"></path>
					<path d="M4316.7 369.1 L4323.9 364.5 L4317.8 358.5 L4330.5 365.2 Z"></path>
					<path d="M3231.5 289.5 L3361 264 L2398.1626326213104 230.48948378240834 L2398.2 230.5 " fill="none"></path>
					<path d="M2405.0 225.4 L2398.2 230.5 L2404.6 236.1 L2391.5 230.3 Z"></path>
					<path d="M3130.5 300.0 L-209.5 335 L-6.605379760152706 362.70291930197914 L-6.6 362.7 " fill="none"></path>
					<path d="M-13.9 367.1 L-6.6 362.7 L-12.5 356.5 L0.0 363.6 Z"></path>
					<path d="M2290.5 231.1 L1655.75 264 L3123.8351383323866 298.1694951062447 L3123.8 298.2 " fill="none"></path>
					<path d="M3117.0 303.3 L3123.8 298.2 L3117.3 292.7 L3130.5 298.3 Z"></path>
					<path d="M4431.5 367.9 L5081 335 L3238.1655033055113 300.56809229860295 L3238.2 300.6 " fill="none"></path>
					<path d="M3244.9 295.4 L3238.2 300.6 L3244.7 306.0 L3231.5 300.4 Z"></path>
					<path d="M101.0 368.2 L830.5 335 L3123.834093555711 300.3633863768442 L3123.8 300.4 " fill="none"></path>
					<path d="M3117.2 305.8 L3123.8 300.4 L3117.1 295.1 L3130.5 300.3 Z"></path>
					<path d="M3231.5 291.4 L3401 264 L2398.1629310820854 230.41441891831514 L2398.2 230.4 " fill="none"></path>
					<path d="M2405.0 225.3 L2398.2 230.4 L2404.6 236.0 L2391.5 230.2 Z"></path>
					<path d="M2290.5 231.3 L1695.75 264 L3123.835236822005 298.1336649770619 L3123.8 298.1 " fill="none"></path>
					<path d="M3117.0 303.3 L3123.8 298.1 L3117.3 292.6 L3130.5 298.3 Z"></path>
					<path d="M3231.5 301.5 L4081 335 L4323.879524715653 363.74074375801894 L4323.9 363.7 " fill="none"></path>
					<path d="M4316.6 368.3 L4323.9 363.7 L4317.9 357.7 L4330.5 364.5 Z"></path>
					<path d="M3231.5 292.6 L3441 264 L2398.1631976131857 230.34481228660735 L2398.2 230.3 " fill="none"></path>
					<path d="M2405.0 225.2 L2398.2 230.3 L2404.7 235.9 L2391.5 230.1 Z"></path>
					<path d="M3130.5 300.0 L-169.5 335 L-6.5815316025551365 361.2891164914059 L-6.6 361.3 " fill="none"></path>
					<path d="M-14.0 365.5 L-6.6 361.3 L-12.3 355.0 L0.0 362.4 Z"></path>
					<path d="M2290.5 231.5 L1735.75 264 L3123.835343597009 298.0958517195598 L3123.8 298.1 " fill="none"></path>
					<path d="M3117.0 303.3 L3123.8 298.1 L3117.3 292.6 L3130.5 298.3 Z"></path>
					<path d="M4431.5 368.1 L5121 335 L3238.165550772673 300.5460706455824 L3238.2 300.5 " fill="none"></path>
					<path d="M3244.9 295.3 L3238.2 300.5 L3244.7 306.0 L3231.5 300.4 Z"></path>
					<path d="M101.0 368.3 L870.5 335 L3123.8341201012113 300.37833314711406 L3123.8 300.4 " fill="none"></path>
					<path d="M3117.3 305.8 L3123.8 300.4 L3117.1 295.1 L3130.5 300.3 Z"></path>
					<path d="M3231.5 293.5 L3481 264 L2398.163436610825 230.28008947340726 L2398.2 230.3 " fill="none"></path>
					<path d="M2405.0 225.2 L2398.2 230.3 L2404.7 235.8 L2391.5 230.1 Z"></path>
					<path d="M3130.5 300.0 L-129.5 335 L-6.540675112227762 359.25031129731065 L-6.5 359.3 " fill="none"></path>
					<path d="M-14.1 363.2 L-6.5 359.3 L-12.0 352.7 L0.0 360.5 Z"></path>
					<path d="M3231.5 301.4 L4121 335 L4323.894620239847 362.70291930197914 L4323.9 362.7 " fill="none"></path>
					<path d="M4316.6 367.1 L4323.9 362.7 L4318.0 356.5 L4330.5 363.6 Z"></path>
					<path d="M3130.5 300.0 L-89.5 335 L-6.4621498136530935 356.0560262972523 L-6.5 356.1 " fill="none"></path>
					<path d="M-14.2 359.6 L-6.5 356.1 L-11.6 349.2 L0.0 357.7 Z"></path>
					<path d="M3231.5 294.2 L3521 264 L2398.1636517400098 230.2197539294664 L2398.2 230.2 " fill="none"></path>
					<path d="M2405.0 225.1 L2398.2 230.2 L2404.7 235.8 L2391.5 230.0 Z"></path>
					<path d="M3231.5 301.3 L4161 335 L4323.9184683974445 361.2891164914059 L4323.9 361.3 " fill="none"></path>
					<path d="M4316.5 365.5 L4323.9 361.3 L4318.2 355.0 L4330.5 362.4 Z"></path>
					<path d="M3231.5 294.8 L3561 264 L2398.163846075741 230.16337420958098 L2398.2 230.2 " fill="none"></path>
					<path d="M2405.0 225.0 L2398.2 230.2 L2404.7 235.7 L2391.5 230.0 Z"></path>
					<path d="M3130.5 300.1 L-49.5 335 L0.5554959493097842 352.76970106200497 L0.6 352.8 " fill="none"></path>
					<path d="M-7.5 355.6 L0.6 352.8 L-3.9 345.5 L6.8 355.0 Z"></path>
					<path d="M4431.5 368.2 L5161 335 L3238.1655953931217 300.5249387052807 L3238.2 300.5 " fill="none"></path>
					<path d="M3244.9 295.3 L3238.2 300.5 L3244.7 306.0 L3231.5 300.4 Z"></path>
					<path d="M2290.5 231.7 L1775.75 264 L3123.835459613326 298.0558860105128 L3123.8 298.1 " fill="none"></path>
					<path d="M3117.0 303.2 L3123.8 298.1 L3117.3 292.6 L3130.5 298.2 Z"></path>
					<path d="M2290.5 231.9 L1815.75 264 L3123.8355859688045 298.01357868660875 L3123.8 298.0 " fill="none"></path>
					<path d="M3117.0 303.2 L3123.8 298.0 L3117.3 292.5 L3130.5 298.2 Z"></path>
					<path d="M2290.5 232.2 L1855.75 264 L3123.835723929268 297.96871775098214 L3123.8 298.0 " fill="none"></path>
					<path d="M3117.0 303.1 L3123.8 298.0 L3117.3 292.5 L3130.5 298.1 Z"></path>
					<path d="M101.0 368.4 L910.5 335 L3123.834148061669 300.39380653768364 L3123.8 300.4 " fill="none"></path>
					<path d="M3117.3 305.8 L3123.8 300.4 L3117.1 295.2 L3130.5 300.3 Z"></path>
					<path d="M101.0 368.5 L950.5 335 L3123.8341775394556 300.4098348788834 L3123.8 300.4 " fill="none"></path>
					<path d="M3117.3 305.8 L3123.8 300.4 L3117.1 295.2 L3130.5 300.3 Z"></path>
					<path d="M101.0 368.6 L990.5 335 L3123.8342086463713 300.42644857021406 L3123.8 300.4 " fill="none"></path>
					<path d="M3117.3 305.9 L3123.8 300.4 L3117.1 295.2 L3130.5 300.3 Z"></path>
					<path d="M3130.5 300.1 L-9.5 335 L18.56521136617707 351.6052500583214 L18.6 351.6 " fill="none"></path>
					<path d="M10.1 352.8 L18.6 351.6 L15.5 343.6 L24.3 355.0 Z"></path>
					<path d="M101.0 368.7 L1030.5 335 L3123.834241504705 300.44368027276585 L3123.8 300.4 " fill="none"></path>
					<path d="M3117.3 305.9 L3123.8 300.4 L3117.1 295.2 L3130.5 300.3 Z"></path>
					<path d="M2089.5 158.3 L30.5 193 L30.5 228.5 L30.5 228.5 L30.5 264 L30.5 264 L30.5 299.5 L30.5 299.5 L30.5 335 L30.5 335 L38.495314074197644 349.1916824817008 L38.5 349.2 " fill="none"></path>
					<path d="M30.6 346.0 L38.5 349.2 L39.9 340.8 L41.8 355.0 Z"></path>
					<path d="M101.0 368.7 L1070.5 335 L1070.5 299.5 L1070.5 299.5 L1070.5 264 L1070.5 264 L1070.5 228.5 L1070.5 228.5 L1070.5 193 L1070.5 193 L2082.8370029033763 159.39741598590942 L2082.8 159.4 " fill="none"></path>
					<path d="M2076.4 164.9 L2082.8 159.4 L2076.0 154.3 L2089.5 159.2 Z"></path>
					<path d="M3231.5 295.2 L3601 264 L2398.1640222134074 230.11057364172694 L2398.2 230.1 " fill="none"></path>
					<path d="M2405.0 225.0 L2398.2 230.1 L2404.7 235.6 L2391.5 229.9 Z"></path>
					<path d="M1915.8 19.8 L2281 51 L2281 86.5 L2281 86.5 L2281 122 L2281 122 L2281 157.5 L2281 157.5 L2281 193 L2281 193 L2309.0652113661768 209.60525005832142 L2309.1 209.6 " fill="none"></path>
					<path d="M2300.6 210.8 L2309.1 209.6 L2306.0 201.6 L2314.8 213.0 Z"></path>
					<path d="M2391.5 226.2 L3121 193 L3121 157.5 L3121 157.5 L3121 122 L3121 122 L3121 86.5 L3121 86.5 L3121 51 L3121 51 L1922.4140042939139 17.11602401149428 L1922.4 17.1 " fill="none"></path>
					<path d="M1929.2 12.0 L1922.4 17.1 L1928.9 22.6 L1915.8 16.9 Z"></path>
					<path d="M3231.5 295.6 L3641 264 L2398.164182355815 230.0610219027934 L2398.2 230.1 " fill="none"></path>
					<path d="M2405.0 224.9 L2398.2 230.1 L2404.7 235.6 L2391.5 229.9 Z"></path>
					<path d="M2391.5 233.4 L2710.5 264 L3123.8522291951303 295.1881065598876 L3123.9 295.2 " fill="none"></path>
					<path d="M3116.8 300.0 L3123.9 295.2 L3117.6 289.4 L3130.5 295.7 Z"></path>
					<path d="M2190.5 167.4 L2321 193 L2328.9953140741977 207.1916824817008 L2329.0 207.2 " fill="none"></path>
					<path d="M2321.1 204.0 L2329.0 207.2 L2330.4 198.8 L2332.3 213.0 Z"></path>
					<path d="M2391.5 226.3 L3161 193 L2197.1626405124325 159.4875354928417 L2197.2 159.5 " fill="none"></path>
					<path d="M2204.0 154.4 L2197.2 159.5 L2203.6 165.0 L2190.5 159.3 Z"></path>
					<path d="M4431.5 368.3 L5201 335 L5201 299.5 L5201 299.5 L5201 264 L5201 264 L5201 228.5 L5201 228.5 L5201 193 L5201 193 L5201 157.5 L5201 157.5 L5201 122 L5201 122 L5201 86.5 L5201 86.5 L5201 51 L5201 51 L1922.4162891713454 16.108379904244252 L1922.4 16.1 " fill="none"></path>
					<path d="M1929.1 10.8 L1922.4 16.1 L1929.0 21.5 L1915.8 16.0 Z"></path>
					<path d="M1915.8 16.3 L4201 51 L4201 86.5 L4201 86.5 L4201 122 L4201 122 L4201 157.5 L4201 157.5 L4201 193 L4201 193 L4201 228.5 L4201 228.5 L4201 264 L4201 264 L4201 299.5 L4201 299.5 L4201 335 L4201 335 L4323.959324887772 359.25031129731065 L4324.0 359.3 " fill="none"></path>
					<path d="M4316.4 363.2 L4324.0 359.3 L4318.5 352.7 L4330.5 360.5 Z"></path>
					<path d="M3231.5 301.2 L4241 335 L4324.037850186347 356.0560262972523 L4324.0 356.1 " fill="none"></path>
					<path d="M4316.3 359.6 L4324.0 356.1 L4318.9 349.2 L4330.5 357.7 Z"></path>
					<path d="M4431.5 368.4 L5241 335 L3238.1656769650212 300.4851366661448 L3238.2 300.5 " fill="none"></path>
					<path d="M3244.9 295.3 L3238.2 300.5 L3244.7 305.9 L3231.5 300.4 Z"></path>
					<path d="M3231.5 301.1 L4281 335 L4331.05549594931 352.76970106200497 L4331.1 352.8 " fill="none"></path>
					<path d="M4323.0 355.6 L4331.1 352.8 L4326.6 345.5 L4337.3 355.0 Z"></path>
					<path d="M3231.5 301.1 L4321 335 L4349.065211366177 351.6052500583215 L4349.1 351.6 " fill="none"></path>
					<path d="M4340.6 352.8 L4349.1 351.6 L4346.0 343.6 L4354.8 355.0 Z"></path>
					<path d="M4431.5 368.5 L5281 335 L3238.165714300864 300.46637278937175 L3238.2 300.5 " fill="none"></path>
					<path d="M3244.9 295.2 L3238.2 300.5 L3244.7 305.9 L3231.5 300.4 Z"></path>
					<path d="M4431.5 368.6 L5321 335 L3238.165749563313 300.44831033154094 L3238.2 300.4 " fill="none"></path>
					<path d="M3244.9 295.2 L3238.2 300.4 L3244.7 305.9 L3231.5 300.3 Z"></path>
					<path d="M4431.5 368.7 L5361 335 L3238.1657829030883 300.4309106848898 L3238.2 300.4 " fill="none"></path>
					<path d="M3244.9 295.2 L3238.2 300.4 L3244.7 305.9 L3231.5 300.3 Z"></path>
					<path d="M2190.5 158.3 L4361 193 L4361 228.5 L4361 228.5 L4361 264 L4361 264 L4361 299.5 L4361 299.5 L4361 335 L4361 335 L4368.995314074198 349.19168248170087 L4369.0 349.2 " fill="none"></path>
					<path d="M4361.1 346.0 L4369.0 349.2 L4370.4 340.8 L4372.3 355.0 Z"></path>
					<path d="M4431.5 368.7 L5401 335 L5401 299.5 L5401 299.5 L5401 264 L5401 264 L5401 228.5 L5401 228.5 L5401 193 L5401 193 L2197.166271668341 158.12232525121928 L2197.2 158.1 " fill="none"></path>
					<path d="M2203.9 152.9 L2197.2 158.1 L2203.8 163.5 L2190.5 158.0 Z"></path>
					<g data-name="172.19.0.7">
						<g fill="#eee8d5" stroke="#33322E" data-name="172.19.0.7">
							<rect x="1814.8" y="0.0" height="31.0" width="101.0" data-name="172.19.0.7"></rect>
						</g>
						<g transform="translate(1814.75, 0)" font-family="Helvetica" font-size="12pt" font-weight="bold" font-style="normal" data-name="172.19.0.7">
							<g transform="translate(8, 8)" fill="#33322E" text-align="center" data-name="172.19.0.7">
								<text x="42.5" y="13.5" stroke="none" text-anchor="middle" data-name="172.19.0.7">172.19.0.7</text>
								
							</g>
						</g>
					</g>
					<g data-name="172.19.0.2">
						<g fill="#eee8d5" stroke="#33322E" data-name="172.19.0.2">
							<rect x="2089.5" y="71.0" height="31.0" width="101.0" data-name="172.19.0.2"></rect>
						</g>
						<g transform="translate(2089.5, 71)" font-family="Helvetica" font-size="12pt" font-weight="bold" font-style="normal" data-name="172.19.0.2">
							<g transform="translate(8, 8)" fill="#33322E" text-align="center" data-name="172.19.0.2">
								<text x="42.5" y="13.5" stroke="none" text-anchor="middle" data-name="172.19.0.2">172.19.0.2</text>
								
							</g>
						</g>
					</g>
					<g data-name="172.19.0.5">
						<g fill="#eee8d5" stroke="#33322E" data-name="172.19.0.5">
							<rect x="0.0" y="355.0" height="31.0" width="101.0" data-name="172.19.0.5"></rect>
						</g>
						<g transform="translate(0, 355)" font-family="Helvetica" font-size="12pt" font-weight="bold" font-style="normal" data-name="172.19.0.5">
							<g transform="translate(8, 8)" fill="#33322E" text-align="center" data-name="172.19.0.5">
								<text x="42.5" y="13.5" stroke="none" text-anchor="middle" data-name="172.19.0.5">172.19.0.5</text>
								
							</g>
						</g>
					</g>
					<g data-name="172.19.0.3">
						<g fill="#eee8d5" stroke="#33322E" data-name="172.19.0.3">
							<rect x="2290.5" y="213.0" height="31.0" width="101.0" data-name="172.19.0.3"></rect>
						</g>
						<g transform="translate(2290.5, 213)" font-family="Helvetica" font-size="12pt" font-weight="bold" font-style="normal" data-name="172.19.0.3">
							<g transform="translate(8, 8)" fill="#33322E" text-align="center" data-name="172.19.0.3">
								<text x="42.5" y="13.5" stroke="none" text-anchor="middle" data-name="172.19.0.3">172.19.0.3</text>
								
							</g>
						</g>
					</g>
					<g data-name="172.19.0.4">
						<g fill="#eee8d5" stroke="#33322E" data-name="172.19.0.4">
							<rect x="4330.5" y="355.0" height="31.0" width="101.0" data-name="172.19.0.4"></rect>
						</g>
						<g transform="translate(4330.5, 355)" font-family="Helvetica" font-size="12pt" font-weight="bold" font-style="normal" data-name="172.19.0.4">
							<g transform="translate(8, 8)" fill="#33322E" text-align="center" data-name="172.19.0.4">
								<text x="42.5" y="13.5" stroke="none" text-anchor="middle" data-name="172.19.0.4">172.19.0.4</text>
								
							</g>
						</g>
					</g>
					<g data-name="172.19.0.6">
						<g fill="#eee8d5" stroke="#33322E" data-name="172.19.0.6">
							<rect x="2089.5" y="142.0" height="31.0" width="101.0" data-name="172.19.0.6"></rect>
						</g>
						<g transform="translate(2089.5, 142)" font-family="Helvetica" font-size="12pt" font-weight="bold" font-style="normal" data-name="172.19.0.6">
							<g transform="translate(8, 8)" fill="#33322E" text-align="center" data-name="172.19.0.6">
								<text x="42.5" y="13.5" stroke="none" text-anchor="middle" data-name="172.19.0.6">172.19.0.6</text>
								
							</g>
						</g>
					</g>
					<g data-name="172.19.0.8">
						<g fill="#eee8d5" stroke="#33322E" data-name="172.19.0.8">
							<rect x="3130.5" y="284.0" height="31.0" width="101.0" data-name="172.19.0.8"></rect>
						</g>
						<g transform="translate(3130.5, 284)" font-family="Helvetica" font-size="12pt" font-weight="bold" font-style="normal" data-name="172.19.0.8">
							<g transform="translate(8, 8)" fill="#33322E" text-align="center" data-name="172.19.0.8">
								<text x="42.5" y="13.5" stroke="none" text-anchor="middle" data-name="172.19.0.8">172.19.0.8</text>
								
							</g>
						</g>
					</g>
				</g>
			</g>
		</g>
	</g>
</svg>